<?xml version="1.0" encoding="UTF-8" standalone="no"?>
<!DOCTYPE svg PUBLIC "-//W3C//DTD SVG 1.1//EN" "http://www.w3.org/Graphics/SVG/1.1/DTD/svg11.dtd">
<svg width="100%" height="100%" viewBox="0 0 1000 1000" version="1.1" xmlns="http://www.w3.org/2000/svg" xmlns:xlink="http://www.w3.org/1999/xlink" xml:space="preserve" xmlns:serif="http://www.serif.com/" style="fill-rule:evenodd;clip-rule:evenodd;stroke-linejoin:round;stroke-miterlimit:2;">
    <g transform="matrix(1.271821,0,0,1.271821,99.955341,186.838121)">
        <g transform="matrix(3.779532,0,0,3.779532,-86.218686,-261.422523)">
            <path d="M59.888,110.037C45.781,120.962 37.392,137.885 37.377,155.887C37.386,168.704 41.694,181.157 49.524,191.304L37.498,199.465C27.977,185.606 22.816,169.188 22.812,152.373C22.832,130.692 31.333,109.967 46.366,94.503C50.944,99.767 56.215,105.82 59.888,110.037ZM52.711,88.59C67.629,76.094 86.513,69.186 106.062,69.168L106.063,69.168C126.587,69.17 146.348,76.767 161.561,90.391L137.878,116.267C127.166,104.804 111.965,97.842 95.47,97.841C85.534,97.841 75.795,100.393 67.174,105.206C63.447,100.926 57.651,94.27 52.711,88.59ZM167.712,96.509C181.538,111.768 189.256,131.678 189.258,152.365C189.252,169.04 184.228,185.335 174.843,199.119L147.099,182.375C151.308,174.177 153.504,165.093 153.506,155.878C153.491,144.153 149.961,132.728 143.368,123.107L167.712,96.509Z"/>
        </g>
        <g transform="matrix(3.779532,0,0,3.779532,-86.218686,-261.422523)">
            <path d="M51.266,122.989L126.756,168.415L115.175,178.663L51.266,122.989Z" style="fill-rule:nonzero;"/>
        </g>
    </g>
</svg>
