<?xml version="1.0" encoding="UTF-8" standalone="no"?>
<!DOCTYPE svg PUBLIC "-//W3C//DTD SVG 1.1//EN" "http://www.w3.org/Graphics/SVG/1.1/DTD/svg11.dtd">
<svg width="100%" height="100%" viewBox="0 0 1000 1000" version="1.1" xmlns="http://www.w3.org/2000/svg" xmlns:xlink="http://www.w3.org/1999/xlink" xml:space="preserve" xmlns:serif="http://www.serif.com/" style="fill-rule:evenodd;clip-rule:evenodd;stroke-linejoin:round;stroke-miterlimit:2;">
    <g transform="matrix(1.271821,0,0,1.271821,99.955341,186.838121)">
        <g transform="matrix(3.779532,0,0,3.779532,-86.218686,-261.422523)">
            <path d="M63.542,107.413L63.55,107.422C47.245,118.135 37.394,136.377 37.377,155.887C37.386,168.704 41.694,181.157 49.524,191.304L37.498,199.465C27.977,185.606 22.816,169.188 22.812,152.373C22.833,129.232 32.517,107.18 49.492,91.452L49.482,91.441C64.851,77.148 85.074,69.188 106.062,69.168L106.063,69.168C128.095,69.171 149.249,77.925 164.84,93.492C164.84,93.492 164.839,93.493 164.839,93.493C180.464,109.092 189.255,130.286 189.258,152.365C189.252,169.04 184.228,185.335 174.843,199.119L147.099,182.375C151.308,174.177 153.504,165.093 153.506,155.878C153.489,142.811 149.107,130.117 140.986,119.878L140.985,119.877C130.225,106.282 113.632,97.842 95.47,97.841C84.11,97.841 73.009,101.176 63.542,107.413Z"/>
        </g>
        <g transform="matrix(3.779532,0,0,3.779532,-86.218686,-261.422523)">
            <path d="M51.266,122.989L126.756,168.415L115.175,178.663L51.266,122.989Z" style="fill-rule:nonzero;"/>
        </g>
    </g>
</svg>
