<?xml version="1.0" encoding="UTF-8" standalone="no"?>
<!DOCTYPE svg PUBLIC "-//W3C//DTD SVG 1.1//EN" "http://www.w3.org/Graphics/SVG/1.1/DTD/svg11.dtd">
<svg width="100%" height="100%" viewBox="0 0 1000 1000" version="1.1" xmlns="http://www.w3.org/2000/svg" xmlns:xlink="http://www.w3.org/1999/xlink" xml:space="preserve" xmlns:serif="http://www.serif.com/" style="fill-rule:evenodd;clip-rule:evenodd;stroke-linejoin:round;stroke-miterlimit:2;">
    <g transform="matrix(1.271821,0,0,1.271821,99.955341,186.838121)">
        <g transform="matrix(3.779532,0,0,3.779532,-86.218686,-261.422523)">
            <path d="M106.062,69.168C85.074,69.188 64.851,77.148 49.482,91.441L63.54,107.413C63.087,107.712 62.638,108.017 62.195,108.327C71.947,101.503 83.567,97.841 95.47,97.841C113.632,97.842 130.226,106.282 140.986,119.878C149.293,110.687 157.729,101.358 164.84,93.492C149.249,77.925 128.095,69.171 106.063,69.168" style="fill:rgb(249,158,28);fill-rule:nonzero;"/>
        </g>
        <g transform="matrix(3.779532,0,0,3.779532,-86.218686,-261.422523)">
            <path d="M51.266,122.989L126.756,168.415L115.175,178.663L51.266,122.989Z" style="fill:rgb(0,57,126);fill-rule:nonzero;"/>
        </g>
        <g transform="matrix(2.536198,-2.802242,2.802242,2.536198,-86.218844,-261.422847)">
            <path d="M41.29,184.952L5.726,184.972C3.584,197.864 -2.887,209.632 -12.564,218.413C-19.398,224.595 -27.607,229.062 -36.509,231.443L-30.306,263.249C-13.788,260.958 1.664,253.748 14.032,242.563C30.4,227.745 40.214,207.005 41.294,184.953L41.29,184.952Z" style="fill:rgb(238,15,106);fill-rule:nonzero;"/>
        </g>
        <g transform="matrix(3.779532,0,0,3.779532,-86.218686,-261.422523)">
            <path d="M49.493,91.451C32.517,107.179 22.833,129.231 22.812,152.373C22.816,169.188 27.977,185.606 37.498,199.465L49.524,191.304C41.694,181.157 37.386,168.704 37.377,155.887C37.394,136.377 47.245,118.135 63.55,107.422L49.493,91.451Z" style="fill:rgb(180,204,56);fill-rule:nonzero;"/>
        </g>
    </g>
</svg>
